# xmcd CD database file
#
# Track frame offsets:
#	150
#	48175
#	78637
#	102075
#	143675
#	163400
#	202125
#	231200
#	257150
#	287610
#
# Disc length: 3994 seconds
#
# Revision: 0
# Processed by: cddbd v1.4PL0 Copyright (c) Steve Scherf et al.
# Submitted via: CDex 1.50beta9
#
DISCID=8e0f980a
DTITLE=Nils Sandström - The Painter
DYEAR=1900
DGENRE=Jazz
TTITLE0=I Remember Clifford
TTITLE1=Manteca
TTITLE2=Django
TTITLE3=Cantaloupe Island
TTITLE4=Woody'n You
TTITLE5=Stella By Starlight
TTITLE6=Isrrael
TTITLE7=Come Rarin Come Shine
TTITLE8=Straighy No Chaser
TTITLE9=Oleo
EXTD=
EXTT0=
EXTT1=
EXTT2=
EXTT3=
EXTT4=
EXTT5=
EXTT6=
EXTT7=
EXTT8=
EXTT9=
PLAYORDER=
